<svg width="136" height="18" viewBox="0 0 136 18" fill="none" xmlns="http://www.w3.org/2000/svg">
<path d="M6.69098 18C6.03893 18 5.45356 17.9662 4.93488 17.8986C4.43102 17.831 3.87529 17.7042 3.26769 17.5183C2.58599 17.3155 2.02286 17.0535 1.57827 16.7324C1.13369 16.3944 0.763202 15.9296 0.466813 15.338C0.155604 14.7465 0 14.0451 0 13.2338V6.00845C0 2.69577 2.23033 1.03944 6.69098 1.03944C7.83208 1.03944 9.35848 1.22535 11.2702 1.59718V4.56338C9.55114 4.09014 8.03955 3.85352 6.73544 3.85352C6.18712 3.85352 5.75736 3.87042 5.44615 3.90423C5.14976 3.93803 4.83855 4.02254 4.51252 4.15775C3.81601 4.42817 3.46775 5.02817 3.46775 5.95775V12.9549C3.46775 14.4423 4.66072 15.1859 7.04665 15.1859C8.06919 15.1859 9.50668 14.9408 11.3591 14.4507V17.4423C9.77343 17.8141 8.21739 18 6.69098 18Z" fill="black"/>
<path d="M6.69098 18C6.03893 18 5.45356 17.9662 4.93488 17.8986C4.43102 17.831 3.87529 17.7042 3.26769 17.5183C2.58599 17.3155 2.02286 17.0535 1.57827 16.7324C1.13369 16.3944 0.763202 15.9296 0.466813 15.338C0.155604 14.7465 0 14.0451 0 13.2338V6.00845C0 2.69577 2.23033 1.03944 6.69098 1.03944C7.83208 1.03944 9.35848 1.22535 11.2702 1.59718V4.56338C9.55114 4.09014 8.03955 3.85352 6.73544 3.85352C6.18712 3.85352 5.75736 3.87042 5.44615 3.90423C5.14976 3.93803 4.83855 4.02254 4.51252 4.15775C3.81601 4.42817 3.46775 5.02817 3.46775 5.95775V12.9549C3.46775 14.4423 4.66072 15.1859 7.04665 15.1859C8.06919 15.1859 9.50668 14.9408 11.3591 14.4507V17.4423C9.77343 17.8141 8.21739 18 6.69098 18Z" fill="url(#paint0_linear_9_1544)"/>
<path d="M13.5304 1.03944H16.7759V4.03099H13.5304V1.03944ZM13.5304 5.47606H16.7759V17.7465H13.5304V5.47606Z" fill="black"/>
<path d="M13.5304 1.03944H16.7759V4.03099H13.5304V1.03944ZM13.5304 5.47606H16.7759V17.7465H13.5304V5.47606Z" fill="url(#paint1_linear_9_1544)"/>
<path d="M19.7152 5.47606H22.9162V6.97183C23.1681 5.80563 24.3166 5.22254 26.3617 5.22254C27.7399 5.22254 28.7032 5.50986 29.2515 6.08451C29.8146 6.64225 30.0962 7.52958 30.0962 8.74648V17.7465H26.8508V9.22817C26.8508 8.75493 26.8063 8.4 26.7174 8.16338C26.6433 7.92676 26.4803 7.75775 26.2283 7.65634C25.9912 7.55493 25.6207 7.50423 25.1169 7.50423C24.4796 7.50423 24.0128 7.55493 23.7164 7.65634C23.4201 7.74085 23.22 7.90141 23.1163 8.13803C23.0125 8.37465 22.9607 8.73803 22.9607 9.22817V17.7465H19.7152V5.47606Z" fill="black"/>
<path d="M19.7152 5.47606H22.9162V6.97183C23.1681 5.80563 24.3166 5.22254 26.3617 5.22254C27.7399 5.22254 28.7032 5.50986 29.2515 6.08451C29.8146 6.64225 30.0962 7.52958 30.0962 8.74648V17.7465H26.8508V9.22817C26.8508 8.75493 26.8063 8.4 26.7174 8.16338C26.6433 7.92676 26.4803 7.75775 26.2283 7.65634C25.9912 7.55493 25.6207 7.50423 25.1169 7.50423C24.4796 7.50423 24.0128 7.55493 23.7164 7.65634C23.4201 7.74085 23.22 7.90141 23.1163 8.13803C23.0125 8.37465 22.9607 8.73803 22.9607 9.22817V17.7465H19.7152V5.47606Z" fill="url(#paint2_linear_9_1544)"/>
<path d="M38.3372 18C34.5286 18 32.6243 16.6732 32.6243 14.0197V9.60845C32.6243 8.07042 33.054 6.95493 33.9136 6.26197C34.7879 5.56901 36.1291 5.22254 37.937 5.22254C39.6413 5.22254 40.8861 5.56056 41.6715 6.23662C42.4718 6.89577 42.8719 8.01972 42.8719 9.60845V12.6H35.892V13.7155C35.892 14.4254 36.1143 14.9324 36.5588 15.2366C37.0034 15.5408 37.8037 15.693 38.9596 15.693C40.0266 15.693 41.227 15.5155 42.5607 15.1606V17.5183C41.2418 17.8394 39.8339 18 38.3372 18ZM39.7821 10.4958V8.72113C39.7821 8.31549 39.6339 8.01127 39.3375 7.80845C39.0559 7.60563 38.5743 7.50423 37.8926 7.50423C37.1072 7.50423 36.5811 7.60563 36.3143 7.80845C36.0327 8.02817 35.892 8.3324 35.892 8.72113V10.4958H39.7821Z" fill="black"/>
<path d="M38.3372 18C34.5286 18 32.6243 16.6732 32.6243 14.0197V9.60845C32.6243 8.07042 33.054 6.95493 33.9136 6.26197C34.7879 5.56901 36.1291 5.22254 37.937 5.22254C39.6413 5.22254 40.8861 5.56056 41.6715 6.23662C42.4718 6.89577 42.8719 8.01972 42.8719 9.60845V12.6H35.892V13.7155C35.892 14.4254 36.1143 14.9324 36.5588 15.2366C37.0034 15.5408 37.8037 15.693 38.9596 15.693C40.0266 15.693 41.227 15.5155 42.5607 15.1606V17.5183C41.2418 17.8394 39.8339 18 38.3372 18ZM39.7821 10.4958V8.72113C39.7821 8.31549 39.6339 8.01127 39.3375 7.80845C39.0559 7.60563 38.5743 7.50423 37.8926 7.50423C37.1072 7.50423 36.5811 7.60563 36.3143 7.80845C36.0327 8.02817 35.892 8.3324 35.892 8.72113V10.4958H39.7821Z" fill="url(#paint3_linear_9_1544)"/>
<path d="M45.3526 5.47606H48.598V6.97183C48.8055 5.80563 49.8651 5.22254 51.7768 5.22254C52.7845 5.22254 53.5477 5.37465 54.0664 5.67887C54.5851 5.9662 54.9333 6.42254 55.1112 7.04789C55.289 6.40563 55.6298 5.94085 56.1337 5.65352C56.6524 5.3662 57.4304 5.22254 58.4678 5.22254C59.4014 5.22254 60.1201 5.3493 60.624 5.60282C61.1279 5.83944 61.4761 6.21127 61.6688 6.71831C61.8762 7.22535 61.98 7.90141 61.98 8.74648V17.7465H58.7345V9.25352C58.7345 8.71268 58.7049 8.33239 58.6456 8.11268C58.5863 7.87606 58.4529 7.71549 58.2455 7.63099C58.0528 7.54648 57.712 7.50423 57.2229 7.50423C56.6153 7.50423 56.1782 7.54648 55.9114 7.63099C55.6595 7.71549 55.4891 7.87606 55.4001 8.11268C55.326 8.33239 55.289 8.71268 55.289 9.25352V17.7465H52.0435V9.25352C52.0435 8.71268 52.0139 8.33239 51.9546 8.11268C51.8953 7.87606 51.762 7.71549 51.5545 7.63099C51.3618 7.54648 51.021 7.50423 50.532 7.50423C49.9244 7.50423 49.4872 7.54648 49.2204 7.63099C48.9685 7.71549 48.7981 7.87606 48.7092 8.11268C48.6351 8.33239 48.598 8.71268 48.598 9.25352V17.7465H45.3526V5.47606Z" fill="black"/>
<path d="M45.3526 5.47606H48.598V6.97183C48.8055 5.80563 49.8651 5.22254 51.7768 5.22254C52.7845 5.22254 53.5477 5.37465 54.0664 5.67887C54.5851 5.9662 54.9333 6.42254 55.1112 7.04789C55.289 6.40563 55.6298 5.94085 56.1337 5.65352C56.6524 5.3662 57.4304 5.22254 58.4678 5.22254C59.4014 5.22254 60.1201 5.3493 60.624 5.60282C61.1279 5.83944 61.4761 6.21127 61.6688 6.71831C61.8762 7.22535 61.98 7.90141 61.98 8.74648V17.7465H58.7345V9.25352C58.7345 8.71268 58.7049 8.33239 58.6456 8.11268C58.5863 7.87606 58.4529 7.71549 58.2455 7.63099C58.0528 7.54648 57.712 7.50423 57.2229 7.50423C56.6153 7.50423 56.1782 7.54648 55.9114 7.63099C55.6595 7.71549 55.4891 7.87606 55.4001 8.11268C55.326 8.33239 55.289 8.71268 55.289 9.25352V17.7465H52.0435V9.25352C52.0435 8.71268 52.0139 8.33239 51.9546 8.11268C51.8953 7.87606 51.762 7.71549 51.5545 7.63099C51.3618 7.54648 51.021 7.50423 50.532 7.50423C49.9244 7.50423 49.4872 7.54648 49.2204 7.63099C48.9685 7.71549 48.7981 7.87606 48.7092 8.11268C48.6351 8.33239 48.598 8.71268 48.598 9.25352V17.7465H45.3526V5.47606Z" fill="url(#paint4_linear_9_1544)"/>
<path d="M67.8702 18C66.8625 18 66.1067 17.8986 65.6028 17.6958C65.1138 17.4761 64.7655 17.0958 64.558 16.5549C64.3654 15.9972 64.2691 15.169 64.2691 14.0704C64.2691 13.0901 64.3728 12.3211 64.5803 11.7634C64.8026 11.2056 65.1508 10.8084 65.625 10.5718C66.1141 10.3183 66.781 10.1915 67.6257 10.1915H71.2712V9.35493C71.2712 8.83099 71.2046 8.44225 71.0712 8.18873C70.9526 7.93521 70.7229 7.75775 70.3821 7.65634C70.0561 7.55493 69.5596 7.50423 68.8927 7.50423C67.9739 7.50423 66.7143 7.60563 65.1138 7.80845V5.47606C66.2845 5.30704 67.6553 5.22254 69.2262 5.22254C70.6044 5.22254 71.664 5.34085 72.4049 5.57747C73.1607 5.81409 73.7016 6.21972 74.0277 6.79437C74.3537 7.36901 74.5167 8.20563 74.5167 9.30423V17.7465H71.3379V16.631C71.086 17.1211 70.7452 17.4676 70.3154 17.6704C69.8856 17.8901 69.0706 18 67.8702 18ZM69.1373 15.693C69.7893 15.693 70.2561 15.6676 70.5377 15.6169C70.7452 15.5831 70.8859 15.5324 70.96 15.4648C71.049 15.3972 71.1231 15.2873 71.1823 15.1352C71.2416 15.0169 71.2712 14.8394 71.2712 14.6028V12.2197H69.0483C68.5445 12.2197 68.1888 12.262 67.9813 12.3465C67.7739 12.4141 67.6331 12.5662 67.559 12.8028C67.4849 13.0225 67.4478 13.4197 67.4478 13.9944C67.4478 14.5521 67.4849 14.9408 67.559 15.1606C67.6331 15.3803 67.7739 15.5239 67.9813 15.5915C68.2036 15.6592 68.5889 15.693 69.1373 15.693Z" fill="black"/>
<path d="M67.8702 18C66.8625 18 66.1067 17.8986 65.6028 17.6958C65.1138 17.4761 64.7655 17.0958 64.558 16.5549C64.3654 15.9972 64.2691 15.169 64.2691 14.0704C64.2691 13.0901 64.3728 12.3211 64.5803 11.7634C64.8026 11.2056 65.1508 10.8084 65.625 10.5718C66.1141 10.3183 66.781 10.1915 67.6257 10.1915H71.2712V9.35493C71.2712 8.83099 71.2046 8.44225 71.0712 8.18873C70.9526 7.93521 70.7229 7.75775 70.3821 7.65634C70.0561 7.55493 69.5596 7.50423 68.8927 7.50423C67.9739 7.50423 66.7143 7.60563 65.1138 7.80845V5.47606C66.2845 5.30704 67.6553 5.22254 69.2262 5.22254C70.6044 5.22254 71.664 5.34085 72.4049 5.57747C73.1607 5.81409 73.7016 6.21972 74.0277 6.79437C74.3537 7.36901 74.5167 8.20563 74.5167 9.30423V17.7465H71.3379V16.631C71.086 17.1211 70.7452 17.4676 70.3154 17.6704C69.8856 17.8901 69.0706 18 67.8702 18ZM69.1373 15.693C69.7893 15.693 70.2561 15.6676 70.5377 15.6169C70.7452 15.5831 70.8859 15.5324 70.96 15.4648C71.049 15.3972 71.1231 15.2873 71.1823 15.1352C71.2416 15.0169 71.2712 14.8394 71.2712 14.6028V12.2197H69.0483C68.5445 12.2197 68.1888 12.262 67.9813 12.3465C67.7739 12.4141 67.6331 12.5662 67.559 12.8028C67.4849 13.0225 67.4478 13.4197 67.4478 13.9944C67.4478 14.5521 67.4849 14.9408 67.559 15.1606C67.6331 15.3803 67.7739 15.5239 67.9813 15.5915C68.2036 15.6592 68.5889 15.693 69.1373 15.693Z" fill="url(#paint5_linear_9_1544)"/>
<path d="M84.3743 18C83.5444 18 82.8109 17.9577 82.1736 17.8732C81.5364 17.7887 80.9066 17.6451 80.2841 17.4423C79.6173 17.2394 79.0689 16.969 78.6392 16.631C78.2094 16.2761 77.8612 15.8197 77.5944 15.262C77.3277 14.6704 77.1943 13.9944 77.1943 13.2338V6.38873C77.1943 5.56056 77.3425 4.8169 77.6389 4.15775C77.9353 3.48169 78.3354 2.9493 78.8392 2.56056C79.3135 2.20563 79.8766 1.90141 80.5287 1.64789C81.1955 1.39437 81.8476 1.22535 82.4848 1.14085C83.0183 1.07324 83.663 1.03944 84.4188 1.03944C86.4639 1.03944 88.42 1.2169 90.2873 1.57183V4.56338C88.5682 4.09014 86.612 3.85352 84.4188 3.85352C81.9143 3.85352 80.662 4.68169 80.662 6.33803V12.9549C80.662 13.7662 80.9955 14.3408 81.6623 14.6789C82.344 15.0169 83.3666 15.1859 84.73 15.1859C85.4561 15.1859 86.2341 15.0592 87.064 14.8056V10.9775H84.7077V8.39155H90.3762V16.9352C89.6352 17.2394 88.6868 17.493 87.5309 17.6958C86.3898 17.8986 85.3376 18 84.3743 18Z" fill="black"/>
<path d="M84.3743 18C83.5444 18 82.8109 17.9577 82.1736 17.8732C81.5364 17.7887 80.9066 17.6451 80.2841 17.4423C79.6173 17.2394 79.0689 16.969 78.6392 16.631C78.2094 16.2761 77.8612 15.8197 77.5944 15.262C77.3277 14.6704 77.1943 13.9944 77.1943 13.2338V6.38873C77.1943 5.56056 77.3425 4.8169 77.6389 4.15775C77.9353 3.48169 78.3354 2.9493 78.8392 2.56056C79.3135 2.20563 79.8766 1.90141 80.5287 1.64789C81.1955 1.39437 81.8476 1.22535 82.4848 1.14085C83.0183 1.07324 83.663 1.03944 84.4188 1.03944C86.4639 1.03944 88.42 1.2169 90.2873 1.57183V4.56338C88.5682 4.09014 86.612 3.85352 84.4188 3.85352C81.9143 3.85352 80.662 4.68169 80.662 6.33803V12.9549C80.662 13.7662 80.9955 14.3408 81.6623 14.6789C82.344 15.0169 83.3666 15.1859 84.73 15.1859C85.4561 15.1859 86.2341 15.0592 87.064 14.8056V10.9775H84.7077V8.39155H90.3762V16.9352C89.6352 17.2394 88.6868 17.493 87.5309 17.6958C86.3898 17.8986 85.3376 18 84.3743 18Z" fill="url(#paint6_linear_9_1544)"/>
<path d="M96.7799 18C95.4017 18 94.431 17.7211 93.8679 17.1634C93.3196 16.5887 93.0454 15.693 93.0454 14.4761V5.47606H96.2909V13.969C96.2909 14.4423 96.3279 14.7972 96.402 15.0338C96.4909 15.2704 96.654 15.4394 96.8911 15.5408C97.143 15.6423 97.5209 15.693 98.0248 15.693C98.662 15.693 99.1288 15.6507 99.4252 15.5662C99.7216 15.4648 99.9217 15.2958 100.025 15.0592C100.129 14.8225 100.181 14.4592 100.181 13.969V5.47606H103.426V17.7465H100.225V16.2507C99.9883 17.4169 98.8398 18 96.7799 18Z" fill="black"/>
<path d="M96.7799 18C95.4017 18 94.431 17.7211 93.8679 17.1634C93.3196 16.5887 93.0454 15.693 93.0454 14.4761V5.47606H96.2909V13.969C96.2909 14.4423 96.3279 14.7972 96.402 15.0338C96.4909 15.2704 96.654 15.4394 96.8911 15.5408C97.143 15.6423 97.5209 15.693 98.0248 15.693C98.662 15.693 99.1288 15.6507 99.4252 15.5662C99.7216 15.4648 99.9217 15.2958 100.025 15.0592C100.129 14.8225 100.181 14.4592 100.181 13.969V5.47606H103.426V17.7465H100.225V16.2507C99.9883 17.4169 98.8398 18 96.7799 18Z" fill="url(#paint7_linear_9_1544)"/>
<path d="M106.355 1.03944H109.6V4.03099H106.355V1.03944ZM106.355 5.47606H109.6V17.7465H106.355V5.47606Z" fill="black"/>
<path d="M106.355 1.03944H109.6V4.03099H106.355V1.03944ZM106.355 5.47606H109.6V17.7465H106.355V5.47606Z" fill="url(#paint8_linear_9_1544)"/>
<path d="M116.674 18C115.4 18 114.458 17.8986 113.851 17.6958C113.243 17.4761 112.821 17.0704 112.584 16.4789C112.347 15.8873 112.228 14.9662 112.228 13.7155V8.92394C112.228 7.57183 112.562 6.6169 113.228 6.05916C113.91 5.50141 115.007 5.22254 116.518 5.22254C117.23 5.22254 117.785 5.27324 118.186 5.37465C118.601 5.45916 118.934 5.61972 119.186 5.85634C119.438 6.07606 119.697 6.40563 119.964 6.84507V0H123.209V17.7465H120.075V16.3521C119.808 16.8423 119.564 17.1887 119.341 17.3916C119.134 17.5775 118.838 17.7211 118.452 17.8225C118.052 17.9408 117.459 18 116.674 18ZM117.496 15.693C118.223 15.693 118.756 15.6507 119.097 15.5662C119.438 15.4817 119.668 15.3296 119.786 15.1099C119.905 14.8732 119.964 14.5268 119.964 14.0704V9.12676C119.964 8.70423 119.897 8.3831 119.764 8.16338C119.645 7.92676 119.423 7.75775 119.097 7.65634C118.786 7.55493 118.312 7.50423 117.674 7.50423C116.993 7.50423 116.504 7.55493 116.207 7.65634C115.911 7.74085 115.711 7.90141 115.607 8.13803C115.518 8.35775 115.474 8.72958 115.474 9.25352V13.9437C115.474 14.4169 115.518 14.7803 115.607 15.0338C115.711 15.2704 115.903 15.4394 116.185 15.5408C116.467 15.6423 116.904 15.693 117.496 15.693Z" fill="black"/>
<path d="M116.674 18C115.4 18 114.458 17.8986 113.851 17.6958C113.243 17.4761 112.821 17.0704 112.584 16.4789C112.347 15.8873 112.228 14.9662 112.228 13.7155V8.92394C112.228 7.57183 112.562 6.6169 113.228 6.05916C113.91 5.50141 115.007 5.22254 116.518 5.22254C117.23 5.22254 117.785 5.27324 118.186 5.37465C118.601 5.45916 118.934 5.61972 119.186 5.85634C119.438 6.07606 119.697 6.40563 119.964 6.84507V0H123.209V17.7465H120.075V16.3521C119.808 16.8423 119.564 17.1887 119.341 17.3916C119.134 17.5775 118.838 17.7211 118.452 17.8225C118.052 17.9408 117.459 18 116.674 18ZM117.496 15.693C118.223 15.693 118.756 15.6507 119.097 15.5662C119.438 15.4817 119.668 15.3296 119.786 15.1099C119.905 14.8732 119.964 14.5268 119.964 14.0704V9.12676C119.964 8.70423 119.897 8.3831 119.764 8.16338C119.645 7.92676 119.423 7.75775 119.097 7.65634C118.786 7.55493 118.312 7.50423 117.674 7.50423C116.993 7.50423 116.504 7.55493 116.207 7.65634C115.911 7.74085 115.711 7.90141 115.607 8.13803C115.518 8.35775 115.474 8.72958 115.474 9.25352V13.9437C115.474 14.4169 115.518 14.7803 115.607 15.0338C115.711 15.2704 115.903 15.4394 116.185 15.5408C116.467 15.6423 116.904 15.693 117.496 15.693Z" fill="url(#paint9_linear_9_1544)"/>
<path d="M131.465 18C127.657 18 125.752 16.6732 125.752 14.0197V9.60845C125.752 8.07042 126.182 6.95493 127.042 6.26197C127.916 5.56901 129.257 5.22254 131.065 5.22254C132.769 5.22254 134.014 5.56056 134.8 6.23662C135.6 6.89577 136 8.01972 136 9.60845V12.6H129.02V13.7155C129.02 14.4254 129.242 14.9324 129.687 15.2366C130.132 15.5408 130.932 15.693 132.088 15.693C133.155 15.693 134.355 15.5155 135.689 15.1606V17.5183C134.37 17.8394 132.962 18 131.465 18ZM132.91 10.4958V8.72113C132.91 8.31549 132.762 8.01127 132.466 7.80845C132.184 7.60563 131.702 7.50423 131.021 7.50423C130.235 7.50423 129.709 7.60563 129.442 7.80845C129.161 8.02817 129.02 8.3324 129.02 8.72113V10.4958H132.91Z" fill="black"/>
<path d="M131.465 18C127.657 18 125.752 16.6732 125.752 14.0197V9.60845C125.752 8.07042 126.182 6.95493 127.042 6.26197C127.916 5.56901 129.257 5.22254 131.065 5.22254C132.769 5.22254 134.014 5.56056 134.8 6.23662C135.6 6.89577 136 8.01972 136 9.60845V12.6H129.02V13.7155C129.02 14.4254 129.242 14.9324 129.687 15.2366C130.132 15.5408 130.932 15.693 132.088 15.693C133.155 15.693 134.355 15.5155 135.689 15.1606V17.5183C134.37 17.8394 132.962 18 131.465 18ZM132.91 10.4958V8.72113C132.91 8.31549 132.762 8.01127 132.466 7.80845C132.184 7.60563 131.702 7.50423 131.021 7.50423C130.235 7.50423 129.709 7.60563 129.442 7.80845C129.161 8.02817 129.02 8.3324 129.02 8.72113V10.4958H132.91Z" fill="url(#paint10_linear_9_1544)"/>
<defs>
<linearGradient id="paint0_linear_9_1544" x1="-1.24496" y1="-3.80282" x2="123.637" y2="52.2486" gradientUnits="userSpaceOnUse">
<stop offset="0.2" stop-color="#6A5DC2"/>
<stop offset="0.8" stop-color="#DC5DFC"/>
</linearGradient>
<linearGradient id="paint1_linear_9_1544" x1="-1.24496" y1="-3.80282" x2="123.637" y2="52.2486" gradientUnits="userSpaceOnUse">
<stop offset="0.2" stop-color="#6A5DC2"/>
<stop offset="0.8" stop-color="#DC5DFC"/>
</linearGradient>
<linearGradient id="paint2_linear_9_1544" x1="-1.24496" y1="-3.80282" x2="123.637" y2="52.2486" gradientUnits="userSpaceOnUse">
<stop offset="0.2" stop-color="#6A5DC2"/>
<stop offset="0.8" stop-color="#DC5DFC"/>
</linearGradient>
<linearGradient id="paint3_linear_9_1544" x1="-1.24496" y1="-3.80282" x2="123.637" y2="52.2486" gradientUnits="userSpaceOnUse">
<stop offset="0.2" stop-color="#6A5DC2"/>
<stop offset="0.8" stop-color="#DC5DFC"/>
</linearGradient>
<linearGradient id="paint4_linear_9_1544" x1="-1.24496" y1="-3.80282" x2="123.637" y2="52.2486" gradientUnits="userSpaceOnUse">
<stop offset="0.2" stop-color="#6A5DC2"/>
<stop offset="0.8" stop-color="#DC5DFC"/>
</linearGradient>
<linearGradient id="paint5_linear_9_1544" x1="-1.24496" y1="-3.80282" x2="123.637" y2="52.2486" gradientUnits="userSpaceOnUse">
<stop offset="0.2" stop-color="#6A5DC2"/>
<stop offset="0.8" stop-color="#DC5DFC"/>
</linearGradient>
<linearGradient id="paint6_linear_9_1544" x1="-1.24496" y1="-3.80282" x2="123.637" y2="52.2486" gradientUnits="userSpaceOnUse">
<stop offset="0.2" stop-color="#6A5DC2"/>
<stop offset="0.8" stop-color="#DC5DFC"/>
</linearGradient>
<linearGradient id="paint7_linear_9_1544" x1="-1.24496" y1="-3.80282" x2="123.637" y2="52.2486" gradientUnits="userSpaceOnUse">
<stop offset="0.2" stop-color="#6A5DC2"/>
<stop offset="0.8" stop-color="#DC5DFC"/>
</linearGradient>
<linearGradient id="paint8_linear_9_1544" x1="-1.24496" y1="-3.80282" x2="123.637" y2="52.2486" gradientUnits="userSpaceOnUse">
<stop offset="0.2" stop-color="#6A5DC2"/>
<stop offset="0.8" stop-color="#DC5DFC"/>
</linearGradient>
<linearGradient id="paint9_linear_9_1544" x1="-1.24496" y1="-3.80282" x2="123.637" y2="52.2486" gradientUnits="userSpaceOnUse">
<stop offset="0.2" stop-color="#6A5DC2"/>
<stop offset="0.8" stop-color="#DC5DFC"/>
</linearGradient>
<linearGradient id="paint10_linear_9_1544" x1="-1.24496" y1="-3.80282" x2="123.637" y2="52.2486" gradientUnits="userSpaceOnUse">
<stop offset="0.2" stop-color="#6A5DC2"/>
<stop offset="0.8" stop-color="#DC5DFC"/>
</linearGradient>
</defs>
</svg>
